<svg xmlns="http://www.w3.org/2000/svg" width="148" height="25" fill="none"><path fill="#0C0C0C" d="M.73 19V1.48h4.656l4.392 10.464h.432L14.578 1.48h4.728V19h-3.384V4.048l.432.048-4.728 11.328h-3.48L3.394 4.096l.456-.048V19H.73Zm22.25 5.136V21.28h2.449c.464 0 .848-.064 1.152-.192.32-.112.584-.304.792-.576.208-.256.368-.616.48-1.08l3.504-13.464h3.192l-3.864 14.184c-.256.976-.616 1.752-1.08 2.328a3.834 3.834 0 0 1-1.8 1.272c-.72.256-1.616.384-2.688.384H22.98Zm4.057-5.424v-2.64h2.784v2.64h-2.784Zm-1.128 0L21.685 5.968h3.36l4.008 12.744h-3.144Z"/><path fill="#80F" d="M45.001 19.456c-1.584 0-2.944-.28-4.08-.84-1.136-.56-2.064-1.288-2.784-2.184a9.247 9.247 0 0 1-1.56-2.928c-.336-1.056-.504-2.072-.504-3.048v-.528c0-1.088.168-2.16.504-3.216a8.819 8.819 0 0 1 1.608-2.88c.72-.864 1.632-1.552 2.736-2.064 1.12-.528 2.44-.792 3.96-.792 1.584 0 2.96.288 4.128.864 1.184.56 2.128 1.36 2.832 2.4.704 1.024 1.128 2.224 1.272 3.6h-3.432c-.128-.8-.416-1.472-.864-2.016a3.898 3.898 0 0 0-1.656-1.248c-.672-.288-1.432-.432-2.28-.432-.864 0-1.632.152-2.304.456a4.369 4.369 0 0 0-1.68 1.248 5.826 5.826 0 0 0-1.032 1.92c-.224.736-.336 1.552-.336 2.448 0 .864.112 1.664.336 2.4a5.86 5.86 0 0 0 1.056 1.944 4.817 4.817 0 0 0 1.704 1.272c.688.304 1.48.456 2.376.456 1.312 0 2.416-.32 3.312-.96.912-.656 1.464-1.568 1.656-2.736h3.432a7.977 7.977 0 0 1-1.272 3.432c-.688 1.04-1.632 1.872-2.832 2.496-1.2.624-2.632.936-4.296.936Zm17.276 0c-1.152 0-2.168-.184-3.048-.552-.88-.368-1.624-.864-2.232-1.488a6.757 6.757 0 0 1-1.392-2.16 6.968 6.968 0 0 1-.456-2.496v-.504c0-.896.16-1.744.48-2.544a6.745 6.745 0 0 1 1.416-2.16 6.454 6.454 0 0 1 2.256-1.488c.88-.368 1.872-.552 2.976-.552 1.104 0 2.096.184 2.976.552.88.352 1.624.848 2.232 1.488a6.252 6.252 0 0 1 1.416 2.16c.32.8.48 1.648.48 2.544v.504a6.66 6.66 0 0 1-.48 2.496c-.304.8-.76 1.52-1.368 2.16-.608.624-1.352 1.12-2.232 1.488-.88.368-1.888.552-3.024.552Zm0-2.856c.816 0 1.504-.176 2.064-.528.56-.368.984-.856 1.272-1.464.288-.624.432-1.328.432-2.112 0-.8-.152-1.504-.456-2.112a3.293 3.293 0 0 0-1.296-1.464c-.56-.368-1.232-.552-2.016-.552s-1.464.184-2.04.552c-.56.352-.992.84-1.296 1.464-.304.608-.456 1.312-.456 2.112 0 .784.144 1.488.432 2.112a3.699 3.699 0 0 0 1.296 1.464c.56.352 1.248.528 2.064.528ZM72.302 19V5.968h2.64v5.592h-.24c0-1.328.176-2.432.528-3.312.352-.896.872-1.568 1.56-2.016.704-.448 1.576-.672 2.616-.672h.144c1.552 0 2.728.504 3.528 1.512.8.992 1.2 2.48 1.2 4.464V19h-3.336v-7.752c0-.8-.232-1.448-.696-1.944-.448-.496-1.072-.744-1.872-.744-.816 0-1.48.256-1.992.768-.496.496-.744 1.168-.744 2.016V19h-3.336Zm21.227.168c-1.2 0-2.192-.152-2.976-.456a3.342 3.342 0 0 1-1.728-1.584c-.384-.752-.576-1.76-.576-3.024l.024-11.808h3.12l-.024 12.024c0 .64.168 1.136.504 1.488.352.336.848.504 1.488.504h2.04v2.856h-1.872ZM86.185 8.416V5.968H95.4v2.448h-9.216ZM106.05 19v-3.864h-.552V10.84c0-.752-.184-1.312-.552-1.68-.368-.368-.936-.552-1.704-.552a63.33 63.33 0 0 0-3.144.096c-.56.016-1.064.04-1.512.072V5.944c.368-.032.784-.064 1.248-.096.464-.032.936-.048 1.416-.048.496-.016.96-.024 1.392-.024 1.344 0 2.456.176 3.336.528.896.352 1.568.904 2.016 1.656.464.752.696 1.736.696 2.952V19h-2.64Zm-4.2.336c-.944 0-1.776-.168-2.496-.504a3.929 3.929 0 0 1-1.656-1.44c-.384-.624-.576-1.376-.576-2.256 0-.96.232-1.744.696-2.352.48-.608 1.144-1.064 1.992-1.368.864-.304 1.872-.456 3.024-.456h3.024v1.992h-3.072c-.768 0-1.36.192-1.776.576-.4.368-.6.848-.6 1.44s.2 1.072.6 1.44c.416.368 1.008.552 1.776.552.464 0 .888-.08 1.272-.24.4-.176.728-.464.984-.864.272-.416.424-.976.456-1.68l.816.936c-.08.912-.304 1.68-.672 2.304a3.586 3.586 0 0 1-1.488 1.44c-.624.32-1.392.48-2.304.48Zm16.197.12c-1.136 0-2.12-.192-2.952-.576a6.226 6.226 0 0 1-2.064-1.536 6.57 6.57 0 0 1-1.224-2.16 7.556 7.556 0 0 1-.408-2.448v-.456c0-.88.136-1.72.408-2.52a6.374 6.374 0 0 1 1.272-2.16 5.955 5.955 0 0 1 2.064-1.512c.832-.384 1.792-.576 2.88-.576 1.136 0 2.152.224 3.048.672.896.432 1.608 1.04 2.136 1.824.544.784.848 1.696.912 2.736h-3.24a2.607 2.607 0 0 0-.864-1.68c-.48-.448-1.144-.672-1.992-.672-.736 0-1.352.176-1.848.528-.48.352-.84.84-1.08 1.464-.24.608-.36 1.312-.36 2.112 0 .768.112 1.464.336 2.088.24.624.6 1.112 1.08 1.464.496.352 1.128.528 1.896.528.576 0 1.072-.104 1.488-.312.416-.208.744-.496.984-.864.256-.368.416-.784.48-1.248h3.24c-.064 1.056-.376 1.984-.936 2.784-.544.784-1.272 1.4-2.184 1.848-.896.448-1.92.672-3.072.672Zm14.529-.288c-1.2 0-2.192-.152-2.976-.456a3.342 3.342 0 0 1-1.728-1.584c-.384-.752-.576-1.76-.576-3.024l.024-11.808h3.12l-.024 12.024c0 .64.168 1.136.504 1.488.352.336.848.504 1.488.504h2.04v2.856h-1.872Zm-7.344-10.752V5.968h9.216v2.448h-9.216Zm16.65 10.992c-1.792 0-3.2-.376-4.224-1.128-1.008-.768-1.536-1.824-1.584-3.168h3c.048.448.296.856.744 1.224s1.152.552 2.112.552c.8 0 1.432-.144 1.896-.432.48-.288.72-.68.72-1.176 0-.432-.184-.776-.552-1.032-.352-.256-.96-.424-1.824-.504l-1.152-.12c-1.456-.16-2.576-.576-3.36-1.248-.784-.672-1.176-1.568-1.176-2.688 0-.896.224-1.648.672-2.256.448-.608 1.064-1.064 1.848-1.368.8-.32 1.712-.48 2.736-.48 1.6 0 2.896.352 3.888 1.056.992.704 1.512 1.736 1.56 3.096h-3c-.032-.448-.256-.832-.672-1.152-.416-.32-1.016-.48-1.8-.48-.704 0-1.248.136-1.632.408-.384.272-.576.624-.576 1.056 0 .416.152.736.456.96.32.224.832.376 1.536.456l1.152.12c1.536.16 2.736.584 3.6 1.272.88.688 1.32 1.616 1.32 2.784 0 .864-.24 1.616-.72 2.256-.464.624-1.12 1.112-1.968 1.464-.848.352-1.848.528-3 .528Z"/></svg>